<?xml version="1.0" standalone="no"?><!DOCTYPE svg PUBLIC "-//W3C//DTD SVG 1.1//EN" "http://www.w3.org/Graphics/SVG/1.1/DTD/svg11.dtd"><svg t="1712658712167" class="icon" viewBox="0 0 1024 1024" version="1.1" xmlns="http://www.w3.org/2000/svg" p-id="2186" xmlns:xlink="http://www.w3.org/1999/xlink" width="200" height="200"><path d="M768.496 359.12L648.224 572a128 128 0 1 1-1.648-92.288l90.784-160.656A295.2 295.2 0 0 0 520 224C356.512 224 224 356.512 224 520S356.512 816 520 816C683.472 816 816 683.472 816 520c0-59.328-17.44-114.56-47.504-160.88zM600.272 562.352l-0.272-0.144 1.648-2.912a80 80 0 1 0-1.376 3.072zM864 520C864 709.984 709.984 864 520 864S176 709.984 176 520 330.016 176 520 176 864 330.016 864 520z" fill="#000000" p-id="2187"></path></svg>